<svg width="20" height="21" viewBox="0 0 20 21" fill="none" xmlns="http://www.w3.org/2000/svg">
<path d="M8.30267 16.5233C8.71926 16.4352 11.2578 16.4352 11.6743 16.5233C12.0305 16.6056 12.4156 16.7978 12.4156 17.2174C12.3949 17.617 12.1605 17.9711 11.8367 18.1961C11.4168 18.5234 10.924 18.7307 10.4088 18.8054C10.1239 18.8423 9.84398 18.8432 9.56902 18.8054C9.05304 18.7307 8.56025 18.5234 8.14117 18.1952C7.81651 17.9711 7.58212 17.617 7.56142 17.2174C7.56142 16.7978 7.94654 16.6056 8.30267 16.5233ZM10.0377 2.16675C11.7712 2.16675 13.5419 2.98926 14.5937 4.35397C15.2762 5.23272 15.5892 6.11063 15.5892 7.47533V7.83036C15.5892 8.87697 15.8659 9.49385 16.4746 10.2047C16.9359 10.7285 17.0834 11.4007 17.0834 12.1301C17.0834 12.8586 16.844 13.5502 16.3645 14.1117C15.7367 14.7848 14.8513 15.2145 13.9477 15.2892C12.6383 15.4009 11.3281 15.4949 10.0004 15.4949C8.67197 15.4949 7.36256 15.4386 6.05315 15.2892C5.14873 15.2145 4.26337 14.7848 3.63641 14.1117C3.15687 13.5502 2.91669 12.8586 2.91669 12.1301C2.91669 11.4007 3.06494 10.7285 3.52543 10.2047C4.15322 9.49385 4.41162 8.87697 4.41162 7.83036V7.47533C4.41162 6.0737 4.76113 5.15718 5.48085 4.25997C6.55091 2.9515 8.26615 2.16675 9.96317 2.16675H10.0377Z" fill="#2D416F"/>
<circle cx="15" cy="4.5" r="2.5" fill="#E05453" stroke="white"/>
</svg>
