<svg width="18" height="18" viewBox="0 0 18 18" fill="none" xmlns="http://www.w3.org/2000/svg">
<path d="M11.8748 2.15033C11.8415 2.35866 11.8248 2.567 11.8248 2.77533C11.8248 4.65033 13.3415 6.16617 15.2082 6.16617C15.4165 6.16617 15.6165 6.142 15.8248 6.10867V12.8328C15.8248 15.6587 14.1582 17.3337 11.3248 17.3337H5.16734C2.33317 17.3337 0.666504 15.6587 0.666504 12.8328V6.667C0.666504 3.83367 2.33317 2.15033 5.16734 2.15033H11.8748ZM12.0423 7.217C11.8165 7.192 11.5923 7.292 11.4582 7.47533L9.44234 10.0837L7.13317 8.267C6.9915 8.15867 6.82484 8.11617 6.65817 8.13367C6.49234 8.15867 6.34234 8.2495 6.2415 8.38283L3.77567 11.592L3.72484 11.667C3.58317 11.9328 3.64984 12.2745 3.89984 12.4587C4.0165 12.5337 4.1415 12.5837 4.28317 12.5837C4.47567 12.592 4.65817 12.4912 4.77484 12.3337L6.8665 9.64117L9.2415 11.4253L9.31651 11.4745C9.58317 11.6162 9.9165 11.5503 10.1082 11.2995L12.5165 8.192L12.4832 8.20867C12.6165 8.02533 12.6415 7.792 12.5498 7.58367C12.459 7.37533 12.2582 7.23367 12.0423 7.217ZM15.3249 0.666748C16.4333 0.666748 17.3333 1.56675 17.3333 2.67508C17.3333 3.78342 16.4333 4.68342 15.3249 4.68342C14.2166 4.68342 13.3166 3.78342 13.3166 2.67508C13.3166 1.56675 14.2166 0.666748 15.3249 0.666748Z" fill="white"/>
</svg>
